<svg xmlns="http://www.w3.org/2000/svg" width="1240" height="1240"><path d="M600.079 294.166c-2.897 1.072-3.472 3.653-3.529 15.834-.044 9.388-.396 12.066-1.918 14.582-3.556 5.878-3.534 5.874-36.132 6.428-16.5.281-30.727.868-31.615 1.305-3.715 1.83-4.019 5.054-3.927 41.627.115 45.176-.28 46.853-12.254 51.975-2.638 1.128-6.238 3.15-8 4.494-1.762 1.343-6.163 3.516-9.779 4.828-3.617 1.312-8.342 3.755-10.5 5.428-2.159 1.673-5.5 3.634-7.425 4.358-1.925.723-5.525 2.759-8 4.524-2.475 1.764-7.227 4.576-10.56 6.248-3.333 1.672-6.679 3.787-7.437 4.699-.758.913-3.479 2.725-6.048 4.027-2.568 1.301-6.16 3.629-7.981 5.172-1.821 1.543-5.199 4.155-7.506 5.805-18.83 13.466-37.824 31.291-38.987 36.587-1.23 5.6 6.85 18.913 11.48 18.913 1.131 0 4.64-2.369 7.798-5.265 3.157-2.896 8.836-7.508 12.618-10.25 3.783-2.742 8.733-6.453 11-8.247 2.268-1.795 5.419-4.045 7.004-5 1.584-.956 4.959-3.175 7.5-4.931 2.54-1.756 7.299-4.622 10.575-6.368 3.276-1.747 7.551-4.455 9.5-6.018 1.949-1.563 5.505-3.532 7.901-4.375s6.446-3.05 9-4.905c2.554-1.855 6.226-3.883 8.16-4.507 1.934-.625 6.524-2.893 10.2-5.041 3.675-2.147 8.393-4.458 10.483-5.134 4.647-1.504 11.273-4.736 13.3-6.489.825-.713 5.216-2.496 9.757-3.961 4.542-1.465 10.716-4.144 13.722-5.954 3.005-1.81 7.328-3.588 9.608-3.953 2.279-.364 7.579-2.4 11.778-4.523 4.199-2.123 11.01-4.649 15.135-5.615 4.125-.965 10.434-3.279 14.021-5.142 13.275-6.896 24.771-6.746 40.773.533 4.789 2.178 11.181 4.469 14.206 5.091 3.025.622 8.513 2.688 12.195 4.591 3.683 1.903 9.242 4.123 12.355 4.934 3.113.811 8.425 3.018 11.805 4.905 3.38 1.888 8.845 4.205 12.145 5.149 3.3.945 8.475 3.228 11.5 5.073 3.025 1.846 8.031 4.222 11.125 5.282 3.094 1.059 7.371 3.081 9.504 4.493 2.134 1.412 6.752 3.735 10.264 5.162 3.512 1.427 8.01 3.885 9.996 5.462 1.986 1.578 5.96 3.75 8.832 4.828 2.871 1.079 6.921 3.299 9 4.935 2.078 1.636 5.804 4 8.279 5.254 2.475 1.253 6.376 3.676 8.668 5.383 2.292 1.706 6.342 4.347 9 5.867 2.658 1.52 6.857 4.324 9.332 6.231 11.136 8.58 15.783 12.39 21.656 17.755 6.488 5.928 7.012 6.198 9.873 5.101 2.288-.879 8.471-14.01 8.471-17.991 0-6.099-16.894-22.729-38.79-38.185-2.59-1.828-5.835-4.364-7.21-5.636-1.375-1.271-4.075-3.093-6-4.049-1.925-.957-5.376-3.259-7.67-5.116-2.293-1.857-6.289-4.285-8.879-5.395-2.59-1.11-6.11-3.198-7.823-4.638-1.712-1.441-5.141-3.485-7.62-4.543-2.48-1.057-6.758-3.46-9.508-5.339-2.75-1.88-7.679-4.334-10.952-5.454-3.274-1.12-6.874-2.881-8-3.913-1.127-1.031-4.41-3.096-7.297-4.588-6.372-3.293-9.938-7.323-10.87-12.283-.385-2.047-.74-20.522-.79-41.056l-.091-37.335-2.806-2.415-2.806-2.415h-28.976c-32.911 0-34.384-.261-37.401-6.618-1.433-3.02-1.853-6.426-1.922-15.588-.122-16.11 1.167-15.222-22.152-15.262-10.206-.018-19.367.268-20.358.634m6.036 155.838c-4.554 2.202-11.353 4.644-15.11 5.428-3.756.783-9.907 3.002-13.668 4.931-3.76 1.928-9.761 4.252-13.335 5.163-3.573.911-8.973 3.177-12 5.036-3.026 1.858-7.827 3.871-10.669 4.473-2.842.602-7.792 2.691-11 4.642-3.208 1.951-8.308 4.407-11.333 5.458-3.025 1.051-7.979 3.437-11.009 5.301-3.03 1.864-7.814 4.265-10.632 5.336-2.818 1.07-6.639 3.096-8.491 4.5-1.852 1.405-6.045 3.733-9.317 5.174-3.271 1.441-7.321 3.666-9 4.945-1.678 1.279-5.301 3.525-8.051 4.991-4.749 2.531-7.992 4.674-25.5 16.848-8.744 6.08-16.265 12.227-23.695 19.368-6.383 6.134-6.645 8.229-1.892 15.139 1.877 2.729 4.508 8.067 5.846 11.863 1.338 3.795 4.9 11.4 7.915 16.9 6.674 12.172 9.045 13.809 22.326 15.41 19.415 2.34 33.163.658 41.769-5.109 2.877-1.928 6.806-4.114 8.731-4.857 1.925-.744 6.341-3.285 9.813-5.648 3.472-2.363 6.932-4.296 7.687-4.296.755 0 4.215-1.945 7.687-4.322 3.472-2.377 8.563-5.153 11.313-6.169 2.75-1.015 7.475-3.32 10.5-5.12 3.025-1.801 8.231-3.966 11.568-4.812 3.338-.846 9.177-2.947 12.976-4.67 8.29-3.759 18.205-5.465 36.956-6.362 14.948-.714 41.539.627 50.488 2.546 2.988.641 8.826 2.608 12.972 4.373 4.147 1.764 9.71 3.746 12.363 4.404 2.652.659 8.634 3.208 13.293 5.665 4.658 2.457 9.075 4.467 9.815 4.467.739 0 3.716 1.631 6.613 3.624 2.898 1.994 7.647 4.676 10.553 5.961 2.906 1.285 7.315 3.888 9.799 5.784 2.484 1.896 6.223 3.994 8.31 4.663 2.087.668 5.264 2.313 7.061 3.655 8.706 6.503 20.938 8.488 39.212 6.364 15.366-1.786 22.038-6.11 26.047-16.877 1.162-3.121 3.391-7.699 4.955-10.174 1.563-2.475 3.562-6.96 4.441-9.967.879-3.006 2.719-7.159 4.088-9.228 1.37-2.069 2.49-4.699 2.49-5.843 0-2.624-7.783-10.906-16.674-17.744-10.994-8.457-20.602-15.292-23.826-16.951-1.65-.85-4.446-2.803-6.213-4.342-1.767-1.539-5.243-3.697-7.725-4.794-2.481-1.098-6.21-3.348-8.287-5-2.076-1.653-6.025-3.885-8.775-4.96-2.75-1.076-7.395-3.571-10.322-5.544-2.927-1.974-7.02-4.046-9.096-4.605-2.076-.559-5.706-2.415-8.067-4.126-2.361-1.71-7.365-4.155-11.121-5.432-3.755-1.277-8.83-3.7-11.278-5.384-2.448-1.684-6.85-3.7-9.783-4.48-6.601-1.755-8.181-2.415-13.833-5.776-2.475-1.472-7.425-3.413-11-4.315-3.575-.902-9.65-3.26-13.5-5.241-3.85-1.98-9.925-4.209-13.5-4.953-3.575-.744-10.203-3.144-14.729-5.334-10.819-5.234-14.293-5.23-25.156.023M591.5 584.496c-10.611 1.873-15.694 3.31-21 5.935-3.85 1.906-9.722 4.545-13.049 5.865-3.328 1.321-8.008 3.819-10.4 5.552-2.393 1.734-4.899 3.152-5.569 3.152-.669 0-4.83 2.362-9.245 5.25-21.056 13.77-40.627 23.156-52.032 24.953-7.593 1.197-29.548.421-35.705-1.261-7.912-2.162-26.157-9.156-34-13.033-4.4-2.175-13.625-6.244-20.5-9.041-18.58-7.56-25.486-9.187-29-6.832-2.376 1.592 1.981 4.576 10.297 7.052 5.878 1.751 28.62 12.991 32.203 15.917.55.449 3.025 1.622 5.5 2.607 2.475.984 7.007 3.279 10.071 5.099 3.97 2.359 8.853 4.001 17 5.718 6.286 1.324 13.829 2.94 16.761 3.59 3.226.715 10.141 1.011 17.5.748 13.449-.48 27.025-3.647 36.168-8.438 2.75-1.441 8.229-4.276 12.176-6.3 3.948-2.024 8.673-4.814 10.5-6.2 1.828-1.386 5.124-3.343 7.324-4.348s6.08-3.321 8.623-5.146c2.543-1.826 6.368-4.118 8.5-5.095 2.132-.976 6.802-3.418 10.377-5.425 3.575-2.008 8.525-4.161 11-4.785 2.475-.624 8.317-2.49 12.982-4.147 11.722-4.164 27.25-5.65 42.344-4.054 8.612.911 14.572 2.323 25.996 6.159 8.152 2.738 16.027 5.833 17.5 6.878 1.473 1.044 5.797 3.311 9.609 5.036 3.812 1.725 8.312 4.189 10 5.475 1.688 1.287 5.544 3.592 8.569 5.123 3.025 1.531 6.875 3.831 8.555 5.112 1.68 1.28 5.28 3.312 8 4.515 2.72 1.202 7.195 3.657 9.945 5.455 2.864 1.872 9.699 4.655 16 6.513 9.001 2.655 13.181 3.318 23 3.648 10.981.37 13.358.098 28-3.203 11.96-2.696 17.389-4.429 21.5-6.864 3.025-1.791 7.075-3.875 9-4.631 1.925-.756 5.975-2.811 9-4.567 16.974-9.854 24.226-13.497 30.634-15.388 11.846-3.496 12.133-6.891.493-5.835-3.494.317-8.063 1.683-11.683 3.493-3.269 1.635-9.094 3.999-12.944 5.254-3.85 1.255-10.825 4.179-15.5 6.499-4.675 2.319-10.975 5.01-14 5.978-3.025.969-8.425 3.02-12 4.558-13.509 5.812-39.783 6.659-51.63 1.664-15.926-6.714-20.492-8.96-26.746-13.154-3.729-2.501-7.181-4.547-7.671-4.547-.49 0-4.338-2.25-8.55-5-4.213-2.75-8.133-5-8.712-5-.578 0-3.802-1.792-7.164-3.983-3.363-2.19-8.637-4.851-11.721-5.912-3.084-1.061-6.672-2.627-7.973-3.479-7.309-4.789-27.72-8.63-48.833-9.19-13.262-.351-17.521-.054-29.5 2.06M106 746.532v49.531l11.75-.281 11.75-.282.5-17 .5-17 25-.579c27.361-.633 30.999-1.295 39.116-7.116C202.95 747.828 207 739.933 207 729.662c0-14.42-8.575-26.764-20.717-29.821-2.374-.598-4.561-1.482-4.859-1.964-.298-.482-17.39-.877-37.983-.877H106v49.532m114.458-48.282c-.263.688-.362 22.85-.218 49.25l.26 48 11.25.283 11.25.283V756.945l14.236.278 14.236.277 13.005 19.25L297.483 796h45.125l4.768-11.46 4.768-11.459 19.618-.291c11.714-.173 20.412.113 21.588.71 1.231.625 3.315 4.561 5.56 10.5 1.974 5.225 3.954 10.063 4.399 10.75.945 1.46 22.691 1.817 22.691.372 0-1.034-1.934-5.744-6.034-14.696-1.631-3.562-2.966-6.678-2.966-6.924 0-.246-1.179-3.047-2.62-6.225a691.85 691.85 0 01-3.915-8.777c-.712-1.65-2.505-5.7-3.984-9-1.48-3.3-4.487-10.275-6.683-15.5-2.196-5.225-4.913-11.525-6.036-14a482.027 482.027 0 01-3.955-9 625.592 625.592 0 00-4.037-9.25l-2.127-4.75-11.571.019-11.572.02-18.998 45.98C327.921 775.891 322.06 789 320.945 789c-1.635 0-3.21-2.061-16.288-21.326-6.442-9.49-7.744-12.006-6.593-12.735.79-.5 2.197-.915 3.127-.924.93-.008 1.969-.465 2.309-1.015.34-.55 1.389-1 2.331-1 2.449 0 8.851-5.553 11.969-10.38 2.391-3.704 2.655-5.029 2.611-13.12-.079-14.41-5.118-22.854-16.982-28.46l-6.434-3.04h-38.029c-29.501 0-38.136.28-38.508 1.25m211.025-.034c-.264.706-.368 22.884-.231 49.284l.248 48h22l.5-20 .5-20 22.374-.269c16.004-.193 22.777.064 23.788.904 1.129.936 1.398 4.821 1.335 19.269-.043 9.953-.06 18.673-.038 19.379.031.982 2.674 1.216 11.291 1l11.25-.283v-98l-11.25-.283c-8.617-.216-11.26.018-11.291 1-.022.706-.004 9.54.04 19.633.055 12.578-.285 18.79-1.082 19.75-.931 1.122-5.456 1.397-22.789 1.385-11.896-.009-22.181-.367-22.856-.796-.888-.564-1.304-6.303-1.5-20.735L453.5 697.5l-10.768-.284c-8.061-.213-10.889.039-11.249 1M541 732.971c0 35.547.028 36.034 2.341 41.25 3.615 8.154 11.787 14.625 22.159 17.548 12.039 3.392 19.438 4.426 28.067 3.923 20.212-1.178 33.714-5.9 39.755-13.904 5.614-7.438 5.678-7.982 5.678-47.943v-36.911l-11.25.283-11.25.283-.5 34.5c-.547 37.763-.675 38.573-6.735 42.747-5.439 3.745-9.557 4.754-19.265 4.718-10.471-.038-14.985-1.632-20.211-7.138-5.395-5.682-5.789-8.639-5.789-43.453V697h-23v35.971m277.458-34.721c-.263.688-.362 22.85-.218 49.25l.26 48 10.75.284c8.216.217 10.76-.019 10.791-1 .022-.706.019-9.384-.007-19.284-.026-9.9.326-18.571.781-19.269.637-.978 6.088-1.208 23.756-1l22.929.269.5 20 .5 20 11.25.283c7.249.182 11.254-.085 11.26-.75.005-.568.01-22.408.01-48.533s-.005-47.965-.01-48.533c-.006-.665-4.011-.932-11.26-.75l-11.25.283-.5 20.5-.5 20.5-22.374.269c-15.999.193-22.777-.064-23.787-.903-1.131-.938-1.398-4.896-1.336-19.769.042-10.229.059-19.159.037-19.847-.029-.918-2.834-1.25-10.571-1.25-7.503 0-10.67.359-11.011 1.25m108.553 32.968c.012 37.543.317 40.038 5.885 48.13 3.985 5.792 10.487 10.12 18.604 12.385 19.561 5.457 31.237 5.4 54.5-.266 5.277-1.286 13.253-7.829 16.415-13.467l3.085-5.5v-75h-22l-.5 34c-.545 37.085-.509 36.853-6.674 42.71-3.888 3.694-13.833 6.166-22.357 5.556-8.609-.616-15.51-4.044-19.469-9.671l-3-4.263-.5-34.166-.5-34.166-11.75-.282-11.75-.281.011 34.281m115.447-32.968c-.263.688-.362 22.85-.218 49.25l.26 48 33.431.264c29.482.232 33.97.062 38-1.443 6.397-2.389 11.513-5.725 13.825-9.016 3.167-4.507 6.244-12.296 6.244-15.805 0-6.946-6.25-16.51-13.106-20.055-2.723-1.408-4.041-4.445-1.929-4.445 1.845 0 8.164-6.333 10.094-10.115 2.474-4.85 2.712-18.031.409-22.648-2.59-5.193-8.529-10.086-15.455-12.732-6.506-2.486-6.799-2.505-38.816-2.505-24.886 0-32.369.286-32.739 1.25m-320.473 8.948c-.024 5.168-.842 5.684-9.516 6.006l-7.969.296-.5 10.671c-.275 5.87-.725 10.878-1 11.13-.275.252-2.975 1.691-6 3.197-8.004 3.986-17.945 10.785-22.244 15.216-3.574 3.683-3.672 3.961-2.16 6.119l1.583 2.261 4.161-3.323c9.144-7.303 20.685-13.497 36.984-19.849 10.65-4.151 12.22-4.45 15.879-3.031l6.797 2.636c16.158 6.266 35.997 17.118 39.872 21.811 1.865 2.258 2.609 2.097 3.953-.853 1.043-2.289.776-2.875-2.972-6.512-4.042-3.923-14.063-10.608-22.888-15.271l-4.465-2.359-.284-10.661c-.325-12.213.374-11.47-11.216-11.926l-6.5-.256-.5-4-.5-4-5.25-.302-5.25-.303-.015 3.303m-591.545 7.098c-.274.713-.372 7.8-.219 15.75l.279 14.454 18.387.273c21.431.318 24.563-.529 29.372-7.946 3.987-6.15 3.762-11.274-.726-16.517-5.807-6.784-7.855-7.31-28.466-7.31-13.924 0-18.245.301-18.627 1.296m112.997.007c-.275.716-.373 7.129-.218 14.25l.281 12.947 19.5-.004c16.577-.003 19.974-.262 22.662-1.73 6.759-3.691 9.604-10.531 6.98-16.786-1.794-4.277-4.049-6.416-8.896-8.442-4.958-2.071-39.527-2.273-40.309-.235m820.29 1.303c-.994.995-.926 23.153.073 23.771.441.272 7.978.782 16.75 1.133 18.071.723 20.897.004 25.18-6.408 2.676-4.006 2.848-6.834.688-11.318-3.236-6.718-4.946-7.249-24.441-7.595-9.637-.17-17.85.017-18.25.417m-692.657 8.263c-.55 1.027-1.948 4.515-3.106 7.75-1.158 3.234-2.47 6.781-2.915 7.881-.445 1.1-1.588 4.025-2.539 6.5-.951 2.475-2.135 5.546-2.632 6.825-.497 1.279-.646 2.741-.332 3.25.315.509 6.395.925 13.513.925 12.17 0 12.941-.116 12.941-1.953 0-1.074-.506-3.212-1.125-4.75a4132.98 4132.98 0 00-1.931-4.797c-.444-1.1-2.729-6.837-5.077-12.75-2.347-5.913-4.612-10.75-5.033-10.75-.42 0-1.214.841-1.764 1.869m343.896 21.516c-13.49 5.42-29.066 14-34.7 19.115l-4.406 4 2.666 5c1.467 2.75 3.128 5.563 3.693 6.25 1.179 1.436 11.869 1.728 13.331.363 1.8-1.679 13.977-7.96 18.459-9.52 2.742-.955 7.93-1.57 13.32-1.578 9.802-.017 17.014 2.237 27.611 8.627 6.553 3.952 14.571 4.697 17.29 1.608 1.612-1.832 5.77-10.055 5.77-11.412 0-1.358-14.153-10.847-22.394-15.014-8.37-4.232-27.273-11.876-29.049-11.747-.582.042-5.797 1.981-11.591 4.308M1063.2 756.2c-.784.784-1.2 4.91-1.2 11.893 0 8.828.276 10.799 1.582 11.3.87.334 9.651.607 19.514.607h17.933l3.679-3.371c3.331-3.053 3.671-3.843 3.602-8.382-.089-5.914-3.012-10.599-7.615-12.204-4.321-1.506-35.964-1.374-37.495.157m-343.875 18.697c-3.325.859-6.268 2.264-17.825 8.511-6.215 3.36-7.617 3.737-12.5 3.366-3.127-.238-8.521-1.742-12.5-3.485-8.556-3.747-11.51-4.676-11.469-3.606.017.449 4.367 2.802 9.666 5.228 12.753 5.839 18.215 6.068 27.414 1.151 17.583-9.398 18.009-9.562 24.852-9.561 6.724.001 11.169 1.711 26.537 10.208 7.627 4.218 14.241 3.804 24.803-1.551 4.51-2.287 8.762-4.158 9.449-4.158.686 0 1.248-.48 1.248-1.067 0-1.3-1.896-.749-12.693 3.695-11.787 4.851-14.23 4.614-27.955-2.707-10.379-5.536-12.04-6.113-18.624-6.461-3.975-.21-8.657-.014-10.403.437" fill="undefined" fill-rule="evenodd"/></svg>