<svg xmlns="http://www.w3.org/2000/svg" width="332" height="332"><path d="M20.939 1.356c-5.364 1.457-9.303 4.091-14.165 9.472C.095 18.222.5 8.194.5 166c0 163.802-.86 148.814 9.062 157.882 2.983 2.727 7.115 5.557 9.181 6.288 3.059 1.083 30.501 1.33 147.757 1.33h144l4.652-2.292c6.371-3.139 13.399-10.86 14.864-16.332.644-2.407 1.579-5.157 2.078-6.112 1.297-2.485 1.204-283.066-.094-282.264-.555.343-1.01-.41-1.022-1.691-.039-4.072-3.544-10.187-8.387-14.635C313.455-.215 327.966.523 168 .309 57.331.161 24.481.395 20.939 1.356M.486 166c0 77.825.119 109.662.264 70.75.145-38.913.145-102.588 0-141.5C.605 56.337.486 88.175.486 166M29 154v34h20v-26h7.551l4.974 12.996 4.975 12.996 11.25.004c6.188.002 11.25-.193 11.25-.434 0-.242-2.7-6.879-6.001-14.75-5.322-12.695-5.815-14.425-4.366-15.312 4.203-2.571 7.759-6.193 9.003-9.171 1.79-4.283 1.743-13.695-.085-17.23-2.106-4.073-7.923-8.831-12.274-10.039-2.087-.579-13.285-1.051-25.027-1.054L29 120v34m88.624-32.061c-6.286 2.531-11.94 6.474-14.948 10.425-2.131 2.799-6.676 10.935-6.676 11.95 0 .356 4.434-.738 12.5-3.085 1.65-.48 3-1.47 3-2.2 0-1.661 2.989-2.867 7.329-2.959 3.17-.067 3.298-.214 2.671-3.07-.867-3.949.606-3.8 2.5.254 1.079 2.31 2.389 3.386 4.668 3.835 1.742.344 5.23 1.833 7.75 3.31 3.768 2.208 4.582 3.199 4.582 5.578 0 4.22 1.705 8.023 3.598 8.023 1.35 0 1.423.27.402 1.5-1.074 1.295-.646 1.498 3.128 1.488 3.673-.011 5.029-.623 8.482-3.831 2.261-2.1 4.313-4.425 4.559-5.165.707-2.12 2.831-.15 2.831 2.626 0 1.412.435 2.231 1 1.882 1.444-.892 1.23-5.259-.303-6.2-.717-.44-2.09-2.9-3.051-5.467-2.452-6.546-8.415-12.897-15.825-16.855-5.508-2.941-7.414-3.416-14.821-3.689-6.659-.245-9.556.112-13.376 1.65M173 154v34h21v-26h6.551l4.974 12.996 4.975 12.996 11.367.004c10.352.004 11.321-.152 10.861-1.746-.277-.963-2.977-7.672-5.998-14.909l-5.493-13.159 3.599-2.341c5.92-3.85 8.164-8.121 8.164-15.539 0-7.009-1.311-10.368-5.661-14.499-5.591-5.311-8.33-5.803-32.307-5.803H173v34m92-32.466c-16.082 4.401-27.048 19.825-25.733 36.197 1.013 12.623 8.798 23.618 20.613 29.112 7.542 3.507 20.15 3.708 27.353.435 13.602-6.18 20.913-17.425 21.042-32.365.056-6.455-.387-8.545-2.968-14-1.668-3.527-4.782-8.162-6.92-10.3-8.295-8.295-22.317-12.108-33.387-9.079m2.147 12.553c-1.844.563-5.491 3.161-8.104 5.774-10.265 10.265-8.678 25.587 3.508 33.868 4.64 3.152 13.168 4.179 18.929 2.278 17.062-5.631 19.616-30.42 4.073-39.529-5.038-2.952-13.124-4.003-18.406-2.391M50 140.544v6.544l7.147-.294c6.383-.263 7.356-.575 9.105-2.924 1.278-1.716 1.726-3.364 1.288-4.744-1.318-4.153-3.332-5.126-10.611-5.126H50v6.544m144-.044v6.5h7c7.828 0 11-1.875 11-6.5s-3.172-6.5-11-6.5h-7v6.5m-76.336-.831C116.04 141.293 117.355 142 122 142c3.334 0 5-.417 4.999-1.25 0-1.329-8.143-2.272-9.335-1.081M130 141.374c0 .667 1.8 1.693 4 2.28 2.2.588 4 .749 4 .359s-1.8-1.417-4-2.281c-2.938-1.154-4-1.249-4-.358m-25.898 4.176c-.056 1.128-.627 2.575-1.269 3.217-.89.89-.761 1.324.543 1.824 2.366.908 2.593.414 1.65-3.598-.46-1.957-.866-2.591-.924-1.443m25.148 4.182c-2.338.211-4.25.767-4.25 1.237 0 .47.787.703 1.75.519.963-.184 3.213-.369 5-.411 1.787-.043 3.25-.527 3.25-1.077 0-.55-.338-.921-.75-.825-.412.096-2.662.347-5 .557M121.5 151c-1.908.82-1.897.863.25.93 1.237.038 2.25-.38 2.25-.93s-.112-.968-.25-.93c-.138.039-1.15.457-2.25.93m5.5 5c-3.65.567-2.752.728 4.75.85 5.6.091 9.25-.245 9.25-.85 0-1.097-6.944-1.097-14 0m36.376 1.607c-2.041 5.758-3.382 8.393-4.27 8.393-.548 0-7.208-.964-14.801-2.143-8.602-1.336-19.459-2.223-28.805-2.354-8.501-.119-16.226-.709-17.831-1.362-2.824-1.15-2.829-1.146-2.126 2.103 1.269 5.861 4.811 12.174 9.425 16.799 19.52 19.566 52.374 10.124 58.645-16.854 1.267-5.45 1.115-8.395-.237-4.582M105 164c0 .55.787 1.001 1.75 1.003.963.001 12.038 2.177 24.612 4.835l22.862 4.833 2.388-2.575c2.665-2.874 3-4.086 1.138-4.117-.687-.012-8.45-1.131-17.25-2.487-16.361-2.52-35.5-3.325-35.5-1.492m66.223 51.557c-4.277 2.995-2.279 9.122 3.554 10.901 2.98.908 5.557 4.915 4.765 7.409-.794 2.504-5.728 4.246-9.747 3.442-2.216-.443-2.901-.29-2.391.535.948 1.535 7.457 1.45 10.596-.138 2.028-1.026 2.5-2.007 2.5-5.196 0-3.401-.471-4.23-3.5-6.155-4.562-2.899-7-5.113-7-6.355 0-.55.951-1.951 2.113-3.113 1.62-1.62 2.901-1.984 5.5-1.562 1.863.302 3.387.128 3.387-.388 0-1.531-7.373-1.064-9.777.62m21.807-.278c-4.154 2.102-7.03 7.398-7.03 12.946 0 6.601 3.821 10.775 9.864 10.775 2.21 0 4.336-.515 4.726-1.145.495-.801-.163-.979-2.191-.591-7.777 1.487-13.307-5.964-10.297-13.873 1.786-4.693 5.924-7.791 10.404-7.791 1.922 0 3.494-.36 3.494-.8 0-1.245-6.219-.913-8.97.479m15.258 10.718c-3.407 6.602-5.775 12.003-5.262 12.003.513 0 1.863-1.822 2.999-4.049l2.065-4.048 5.705.298c5.683.298 5.709.313 6.631 4.049.51 2.063 1.297 3.75 1.75 3.75.453 0 .813-.338.8-.75-.072-2.235-6.852-22.709-7.603-22.959-.489-.163-3.677 5.105-7.085 11.706m21.359-10.247c-.269.963-.784 5.35-1.145 9.75s-.895 9.012-1.187 10.25c-.293 1.238-.067 2.25.502 2.25.875 0 2.906-15.869 2.527-19.75-.311-3.191 1.614-.418 6.422 9.25 2.872 5.775 5.61 10.5 6.084 10.5.474 0 1.168-3.713 1.543-8.25.374-4.537.957-10.006 1.296-12.153.415-2.629.27-3.69-.443-3.249-.583.36-1.38 4.929-1.772 10.153-.391 5.225-.996 9.474-1.343 9.444-.347-.03-2.881-4.528-5.631-9.996-2.75-5.468-5.307-9.943-5.683-9.945-.375-.002-.902.783-1.17 1.746m21.992 0c-.273.963-.785 5.575-1.139 10.25s-.866 9.287-1.139 10.25c-.273.963-.062 1.75.468 1.75.529 0 1.285-3.644 1.68-8.098 1.246-14.084 1.29-14.098 7.442-2.33 2.998 5.735 5.746 10.428 6.106 10.428.361 0 .961-3.713 1.336-8.25.374-4.537.957-10.006 1.296-12.153.415-2.629.27-3.69-.443-3.249-.583.36-1.38 4.929-1.772 10.153-.391 5.225-.996 9.474-1.343 9.444-.347-.03-2.881-4.528-5.631-9.996-2.75-5.468-5.307-9.943-5.683-9.945-.375-.002-.905.783-1.178 1.746m21.502 8.286c-1.732 15.237-2.238 13.995 5.609 13.775l6.75-.189-5.75-.361-5.75-.361V226l4.75-.175 4.75-.174-4.305-.386-4.304-.385.304-4.19.305-4.19 5.25-.302c7.163-.413 6.669-2.198-.609-2.198h-5.859l-1.141 10.036m18.491-7.286c-.29 1.512-.808 6.125-1.151 10.25-.344 4.125-.848 8.287-1.12 9.25-.273.963-.067 1.75.456 1.75.524 0 1.262-2.475 1.64-5.5.679-5.438.725-5.5 4.044-5.5 4.116 0 6.12 1.88 7.511 7.045.586 2.175 1.476 3.955 1.979 3.955 1.306 0-1.662-9.286-3.367-10.533-1.186-.867-1.024-1.397.976-3.178 4.986-4.441 1.564-10.289-6.021-10.289-4.028 0-4.467.244-4.947 2.75m1.354 1.945c-.007 1.543-.285 3.817-.616 5.055-.539 2.01-.241 2.25 2.791 2.25 5.033 0 8.021-2.48 7.645-6.346-.291-3.003-.534-3.169-5.056-3.459-4.607-.295-4.75-.22-4.764 2.5m-81.278 3.827c-1.489 3.037-2.708 5.625-2.709 5.75-.002.562 8.538-.077 8.838-.661.479-.932-2.091-10.611-2.818-10.611-.331 0-1.821 2.485-3.311 5.522" fill="undefined" fill-rule="evenodd"/></svg>