<svg xmlns="http://www.w3.org/2000/svg" width="332" height="332"><path d="M4 164.5V204h24V173.885l4.191.308 4.19.307 5.623 14.5 5.623 14.5 13.187.279c7.252.153 13.186.04 13.186-.252s-2.967-7.618-6.593-16.279-6.8-16.246-7.052-16.855c-.253-.609.861-1.654 2.475-2.323C69.696 165.226 74 157.566 74 148.189c0-11.277-7.364-19.58-19.533-22.024-3.379-.679-15.123-1.165-28.134-1.165H4v39.5m167-.1V204h23.909l-.032-14.75-.032-14.75 3.961-.302c3.688-.281 4.041-.073 5.107 3 .629 1.816 3.209 8.589 5.732 15.052l4.589 11.75h26.555l-6.895-16.47c-3.792-9.059-6.894-16.828-6.894-17.264 0-.437 1.827-1.913 4.059-3.28 4.872-2.984 7.459-6.875 8.927-13.423 2.429-10.841-2.806-21.015-13.192-25.633-5.011-2.227-6.644-2.374-30.544-2.741L171 124.8v39.6m-62.071-37.089c-11.735 3.309-23.283 14.045-26.436 24.575-.647 2.163-.479 2.327 1.803 1.754 1.385-.347 3.292-.929 4.239-1.292 1.468-.563 1.652-.16 1.253 2.746-.258 1.873-.652 4.081-.878 4.906-.265.97.297 1.5 1.59 1.5 1.304 0 1.849-.522 1.566-1.5-.239-.825-.464-3.021-.5-4.88-.061-3.147.237-3.47 4.338-4.69 2.422-.72 4.729-1.836 5.126-2.479.47-.759 3.697-1.127 9.221-1.049 6.813.096 9.841.67 15.272 2.896 6.65 2.725 6.799 2.867 8.082 7.739.719 2.73 1.327 5.301 1.351 5.713.024.412-2.768.809-6.206.881l-6.25.131 5.931.756c3.575.456 6.397 1.394 7.105 2.362.921 1.26 2.838 1.575 8.874 1.46l7.699-.146 2.004-3.597c2.316-4.157 1.845-2.257-1.715 6.917l-2.529 6.513-15.184-2.322c-10.338-1.582-20.612-2.406-32.185-2.584-9.622-.148-18.148-.745-19.645-1.376l-2.644-1.115 1.216 5.185c1.808 7.708 4.374 12.391 9.717 17.734 24.735 24.734 66.005 10.62 69.867-23.894.472-4.21 1.139-8.995 1.484-10.632.345-1.638.287-2.639-.127-2.224-.415.415-2.451-2.794-4.524-7.13-4.696-9.822-12.884-17.885-21.559-21.23-7.063-2.723-20.613-3.53-27.356-1.628m168.095.292c-19.923 5.354-32.78 25.317-29.114 45.209 3.834 20.808 20.987 34.204 42.225 32.974 33.716-1.952 49.839-43.21 26.24-67.148-10.768-10.922-24.961-14.902-39.351-11.035M111.557 142.25c.807 2.625 1.267 3.259 1.903 2.623.764-.764-.622-4.873-1.644-4.873-.524 0-.641 1.009-.259 2.25m-82.89-.583c-.367.366-.667 3.966-.667 8V157h7.865C45.213 157 49 154.942 49 149.862c0-4.479-1.608-6.659-5.762-7.813-4.185-1.162-13.546-1.408-14.571-.382m249.575.827c-8.375 3.64-14.64 11.835-15.862 20.748-.844 6.158 1.718 14.344 6.086 19.447 5.016 5.86 11.428 8.724 19.525 8.72 23.212-.012 34.079-28.368 16.84-43.943-2.228-2.013-5.563-4.292-7.409-5.063-4.293-1.794-14.96-1.743-19.18.091M194.5 149.5v7.5h8.295c7.475 0 8.539-.243 10.75-2.455 3-2.999 3.132-6.415.382-9.91-1.954-2.485-2.566-2.635-10.75-2.635H194.5v7.5m-88.5.525c0 1.811.584 2.007 5.5 1.846 4.615-.151 5.5-.477 5.5-2.025 0-1.571-.82-1.846-5.5-1.846-4.856 0-5.5.237-5.5 2.025m14 .397c0 1.974 9.288 4.952 9.844 3.157.157-.506-1.881-1.743-4.529-2.749-5.762-2.188-5.315-2.154-5.315-.408M98 159.9c0 2.648.305 2.9 3.5 2.9s3.5-.252 3.5-2.9c0-2.648-.305-2.9-3.5-2.9s-3.5.252-3.5 2.9m18 .012c0 1.309 5.866 4.113 6.491 3.103.279-.453 3.096-.591 6.259-.308 7.506.672 5.942-1.284-1.75-2.189-3.025-.356-6.737-.85-8.25-1.097s-2.75-.026-2.75.491m-6.839 7.687c.398 2.063.481 2.071 16.089 1.499 6.985-.256 7.713-.433 4.75-1.155-1.925-.468-7.484-1.165-12.352-1.549-8.353-.657-8.832-.589-8.487 1.205m-25.618.332c-.911 1.473 1.325 2.319 4.212 1.594 2.077-.521 2.331-.858 1.193-1.578-1.881-1.19-4.675-1.198-5.405-.016m7.458 8.819c.001.412 4.614.789 10.25.836 5.637.048 14.974.805 20.749 1.684 11.926 1.814 27.75 3.252 27 2.454-.275-.293-8.244-1.701-17.709-3.129-16.614-2.505-40.293-3.59-40.29-1.845" fill="undefined" fill-rule="evenodd"/></svg>